<?xml version="1.0" encoding="UTF-8"?>
<svg xmlns="http://www.w3.org/2000/svg" version="1.1" width="400" height="400">
  <g id="NC3MXX-B-drawing-contents-start">
<!-- XLR XX envelope from https://www.neutrik.com/media/19523/download/Assembly%20Instruction%20-%20XLR%20XX%20Series.pdf -->
<!-- Cable exit is embedded: chuck-type strain relief is part of this part number -->
<polygon points="0.00,-18.90 60.47,-30.24 60.47,30.24 0.00,18.90" fill="#1A1A1A" stroke="none"/>
<rect x="60.47" y="-35.91" width="45.35" height="71.81" fill="#1A1A1A" stroke="none"/>
<line x1="63.31" y1="-35.91" x2="63.31" y2="-28.72" stroke="#4A4C4F" stroke-width="0.8"/>
<line x1="63.31" y1="35.91" x2="63.31" y2="28.72" stroke="#4A4C4F" stroke-width="0.8"/>
<line x1="68.98" y1="-35.91" x2="68.98" y2="-28.72" stroke="#4A4C4F" stroke-width="0.8"/>
<line x1="68.98" y1="35.91" x2="68.98" y2="28.72" stroke="#4A4C4F" stroke-width="0.8"/>
<line x1="74.65" y1="-35.91" x2="74.65" y2="-28.72" stroke="#4A4C4F" stroke-width="0.8"/>
<line x1="74.65" y1="35.91" x2="74.65" y2="28.72" stroke="#4A4C4F" stroke-width="0.8"/>
<line x1="80.31" y1="-35.91" x2="80.31" y2="-28.72" stroke="#4A4C4F" stroke-width="0.8"/>
<line x1="80.31" y1="35.91" x2="80.31" y2="28.72" stroke="#4A4C4F" stroke-width="0.8"/>
<line x1="85.98" y1="-35.91" x2="85.98" y2="-28.72" stroke="#4A4C4F" stroke-width="0.8"/>
<line x1="85.98" y1="35.91" x2="85.98" y2="28.72" stroke="#4A4C4F" stroke-width="0.8"/>
<line x1="91.65" y1="-35.91" x2="91.65" y2="-28.72" stroke="#4A4C4F" stroke-width="0.8"/>
<line x1="91.65" y1="35.91" x2="91.65" y2="28.72" stroke="#4A4C4F" stroke-width="0.8"/>
<line x1="97.32" y1="-35.91" x2="97.32" y2="-28.72" stroke="#4A4C4F" stroke-width="0.8"/>
<line x1="97.32" y1="35.91" x2="97.32" y2="28.72" stroke="#4A4C4F" stroke-width="0.8"/>
<line x1="102.99" y1="-35.91" x2="102.99" y2="-28.72" stroke="#4A4C4F" stroke-width="0.8"/>
<line x1="102.99" y1="35.91" x2="102.99" y2="28.72" stroke="#4A4C4F" stroke-width="0.8"/>
<rect x="105.83" y="-35.91" width="159.12" height="71.81" fill="#3A3C3F" stroke="none"/>
<line x1="115.91" y1="-35.91" x2="115.91" y2="35.91" stroke="#141516" stroke-width="1.1"/>
<line x1="125.98" y1="-35.91" x2="125.98" y2="35.91" stroke="#141516" stroke-width="1.1"/>
<rect x="219.59" y="-9.45" width="30.24" height="18.90" fill="#26282A" stroke="#141516" stroke-width="1.5"/>
<polygon points="0.00,-18.90 60.47,-30.24 60.47,-35.91 105.83,-35.91 105.83,-35.91 264.94,-35.91 264.94,35.91 105.83,35.91 105.83,35.91 60.47,35.91 60.47,30.24 0.00,18.90" fill="none" stroke="#222222" stroke-width="1.5"/>
</g>
<g id="NC3MXX-B-drawing-contents-end">
  </g>
  <g id="output csys locations">
    <g id="flagnote-1">
      <circle cx="552.94" cy="-0.00" r="4" fill="black"/>
      <line x1="552.94" y1="-0.00" x2="576.94" y2="-0.00" stroke="red" stroke-width="2"/>
      <polygon points="576.94,-0.00 570.94,-3.00 570.94,3.00" fill="red"/>
      <line x1="552.94" y1="-0.00" x2="552.94" y2="-24.00" stroke="green" stroke-width="2"/>
      <polygon points="552.94,-24.00 549.94,-18.00 555.94,-18.00" fill="green"/>
    </g>
    <g id="flagnote-1-leader_dest">
      <circle cx="264.94" cy="-0.00" r="4" fill="black"/>
      <line x1="264.94" y1="-0.00" x2="288.94" y2="-0.00" stroke="red" stroke-width="2"/>
      <polygon points="288.94,-0.00 282.94,-3.00 282.94,3.00" fill="red"/>
      <line x1="264.94" y1="-0.00" x2="264.94" y2="-24.00" stroke="green" stroke-width="2"/>
      <polygon points="264.94,-24.00 261.94,-18.00 267.94,-18.00" fill="green"/>
    </g>
    <g id="flagnote-2">
      <circle cx="543.13" cy="-74.54" r="4" fill="black"/>
      <line x1="543.13" y1="-74.54" x2="567.13" y2="-74.54" stroke="red" stroke-width="2"/>
      <polygon points="567.13,-74.54 561.13,-77.54 561.13,-71.54" fill="red"/>
      <line x1="543.13" y1="-74.54" x2="543.13" y2="-98.54" stroke="green" stroke-width="2"/>
      <polygon points="543.13,-98.54 540.13,-92.54 546.13,-92.54" fill="green"/>
    </g>
    <g id="flagnote-2-leader_dest">
      <circle cx="264.94" cy="-35.49" r="4" fill="black"/>
      <line x1="264.94" y1="-35.49" x2="288.94" y2="-35.49" stroke="red" stroke-width="2"/>
      <polygon points="288.94,-35.49 282.94,-38.49 282.94,-32.49" fill="red"/>
      <line x1="264.94" y1="-35.49" x2="264.94" y2="-59.49" stroke="green" stroke-width="2"/>
      <polygon points="264.94,-59.49 261.94,-53.49 267.94,-53.49" fill="green"/>
    </g>
    <g id="flagnote-3">
      <circle cx="543.13" cy="74.54" r="4" fill="black"/>
      <line x1="543.13" y1="74.54" x2="567.13" y2="74.54" stroke="red" stroke-width="2"/>
      <polygon points="567.13,74.54 561.13,71.54 561.13,77.54" fill="red"/>
      <line x1="543.13" y1="74.54" x2="543.13" y2="50.54" stroke="green" stroke-width="2"/>
      <polygon points="543.13,50.54 540.13,56.54 546.13,56.54" fill="green"/>
    </g>
    <g id="flagnote-3-leader_dest">
      <circle cx="264.94" cy="35.49" r="4" fill="black"/>
      <line x1="264.94" y1="35.49" x2="288.94" y2="35.49" stroke="red" stroke-width="2"/>
      <polygon points="288.94,35.49 282.94,32.49 282.94,38.49" fill="red"/>
      <line x1="264.94" y1="35.49" x2="264.94" y2="11.49" stroke="green" stroke-width="2"/>
      <polygon points="264.94,11.49 261.94,17.49 267.94,17.49" fill="green"/>
    </g>
    <g id="flagnote-4">
      <circle cx="514.36" cy="-144.00" r="4" fill="black"/>
      <line x1="514.36" y1="-144.00" x2="538.36" y2="-144.00" stroke="red" stroke-width="2"/>
      <polygon points="538.36,-144.00 532.36,-147.00 532.36,-141.00" fill="red"/>
      <line x1="514.36" y1="-144.00" x2="514.36" y2="-168.00" stroke="green" stroke-width="2"/>
      <polygon points="514.36,-168.00 511.36,-162.00 517.36,-162.00" fill="green"/>
    </g>
    <g id="flagnote-4-leader_dest">
      <circle cx="194.66" cy="-35.90" r="4" fill="black"/>
      <line x1="194.66" y1="-35.90" x2="218.66" y2="-35.90" stroke="red" stroke-width="2"/>
      <polygon points="218.66,-35.90 212.66,-38.90 212.66,-32.90" fill="red"/>
      <line x1="194.66" y1="-35.90" x2="194.66" y2="-59.90" stroke="green" stroke-width="2"/>
      <polygon points="194.66,-59.90 191.66,-53.90 197.66,-53.90" fill="green"/>
    </g>
    <g id="flagnote-5">
      <circle cx="514.36" cy="144.00" r="4" fill="black"/>
      <line x1="514.36" y1="144.00" x2="538.36" y2="144.00" stroke="red" stroke-width="2"/>
      <polygon points="538.36,144.00 532.36,141.00 532.36,147.00" fill="red"/>
      <line x1="514.36" y1="144.00" x2="514.36" y2="120.00" stroke="green" stroke-width="2"/>
      <polygon points="514.36,120.00 511.36,126.00 517.36,126.00" fill="green"/>
    </g>
    <g id="flagnote-5-leader_dest">
      <circle cx="194.66" cy="35.90" r="4" fill="black"/>
      <line x1="194.66" y1="35.90" x2="218.66" y2="35.90" stroke="red" stroke-width="2"/>
      <polygon points="218.66,35.90 212.66,32.90 212.66,38.90" fill="red"/>
      <line x1="194.66" y1="35.90" x2="194.66" y2="11.90" stroke="green" stroke-width="2"/>
      <polygon points="194.66,11.90 191.66,17.90 197.66,17.90" fill="green"/>
    </g>
    <g id="flagnote-6">
      <circle cx="468.60" cy="-203.64" r="4" fill="black"/>
      <line x1="468.60" y1="-203.64" x2="492.60" y2="-203.64" stroke="red" stroke-width="2"/>
      <polygon points="492.60,-203.64 486.60,-206.64 486.60,-200.64" fill="red"/>
      <line x1="468.60" y1="-203.64" x2="468.60" y2="-227.64" stroke="green" stroke-width="2"/>
      <polygon points="468.60,-227.64 465.60,-221.64 471.60,-221.64" fill="green"/>
    </g>
    <g id="flagnote-6-leader_dest">
      <circle cx="168.37" cy="-35.90" r="4" fill="black"/>
      <line x1="168.37" y1="-35.90" x2="192.37" y2="-35.90" stroke="red" stroke-width="2"/>
      <polygon points="192.37,-35.90 186.37,-38.90 186.37,-32.90" fill="red"/>
      <line x1="168.37" y1="-35.90" x2="168.37" y2="-59.90" stroke="green" stroke-width="2"/>
      <polygon points="168.37,-59.90 165.37,-53.90 171.37,-53.90" fill="green"/>
    </g>
    <g id="flagnote-7">
      <circle cx="468.60" cy="203.64" r="4" fill="black"/>
      <line x1="468.60" y1="203.64" x2="492.60" y2="203.64" stroke="red" stroke-width="2"/>
      <polygon points="492.60,203.64 486.60,200.64 486.60,206.64" fill="red"/>
      <line x1="468.60" y1="203.64" x2="468.60" y2="179.64" stroke="green" stroke-width="2"/>
      <polygon points="468.60,179.64 465.60,185.64 471.60,185.64" fill="green"/>
    </g>
    <g id="flagnote-7-leader_dest">
      <circle cx="168.37" cy="35.90" r="4" fill="black"/>
      <line x1="168.37" y1="35.90" x2="192.37" y2="35.90" stroke="red" stroke-width="2"/>
      <polygon points="192.37,35.90 186.37,32.90 186.37,38.90" fill="red"/>
      <line x1="168.37" y1="35.90" x2="168.37" y2="11.90" stroke="green" stroke-width="2"/>
      <polygon points="168.37,11.90 165.37,17.90 171.37,17.90" fill="green"/>
    </g>
    <g id="flagnote-8">
      <circle cx="408.94" cy="-249.42" r="4" fill="black"/>
      <line x1="408.94" y1="-249.42" x2="432.94" y2="-249.42" stroke="red" stroke-width="2"/>
      <polygon points="432.94,-249.42 426.94,-252.42 426.94,-246.42" fill="red"/>
      <line x1="408.94" y1="-249.42" x2="408.94" y2="-273.42" stroke="green" stroke-width="2"/>
      <polygon points="408.94,-273.42 405.94,-267.42 411.94,-267.42" fill="green"/>
    </g>
    <g id="flagnote-8-leader_dest">
      <circle cx="153.21" cy="-35.90" r="4" fill="black"/>
      <line x1="153.21" y1="-35.90" x2="177.21" y2="-35.90" stroke="red" stroke-width="2"/>
      <polygon points="177.21,-35.90 171.21,-38.90 171.21,-32.90" fill="red"/>
      <line x1="153.21" y1="-35.90" x2="153.21" y2="-59.90" stroke="green" stroke-width="2"/>
      <polygon points="153.21,-59.90 150.21,-53.90 156.21,-53.90" fill="green"/>
    </g>
    <g id="flagnote-9">
      <circle cx="408.94" cy="249.42" r="4" fill="black"/>
      <line x1="408.94" y1="249.42" x2="432.94" y2="249.42" stroke="red" stroke-width="2"/>
      <polygon points="432.94,249.42 426.94,246.42 426.94,252.42" fill="red"/>
      <line x1="408.94" y1="249.42" x2="408.94" y2="225.42" stroke="green" stroke-width="2"/>
      <polygon points="408.94,225.42 405.94,231.42 411.94,231.42" fill="green"/>
    </g>
    <g id="flagnote-9-leader_dest">
      <circle cx="153.21" cy="35.90" r="4" fill="black"/>
      <line x1="153.21" y1="35.90" x2="177.21" y2="35.90" stroke="red" stroke-width="2"/>
      <polygon points="177.21,35.90 171.21,32.90 171.21,38.90" fill="red"/>
      <line x1="153.21" y1="35.90" x2="153.21" y2="11.90" stroke="green" stroke-width="2"/>
      <polygon points="153.21,11.90 150.21,17.90 156.21,17.90" fill="green"/>
    </g>
    <g id="flagnote-10">
      <circle cx="339.48" cy="278.19" r="4" fill="black"/>
      <line x1="339.48" y1="278.19" x2="363.48" y2="278.19" stroke="red" stroke-width="2"/>
      <polygon points="363.48,278.19 357.48,275.19 357.48,281.19" fill="red"/>
      <line x1="339.48" y1="278.19" x2="339.48" y2="254.19" stroke="green" stroke-width="2"/>
      <polygon points="339.48,254.19 336.48,260.19 342.48,260.19" fill="green"/>
    </g>
    <g id="flagnote-10-leader_dest">
      <circle cx="142.09" cy="35.90" r="4" fill="black"/>
      <line x1="142.09" y1="35.90" x2="166.09" y2="35.90" stroke="red" stroke-width="2"/>
      <polygon points="166.09,35.90 160.09,32.90 160.09,38.90" fill="red"/>
      <line x1="142.09" y1="35.90" x2="142.09" y2="11.90" stroke="green" stroke-width="2"/>
      <polygon points="142.09,11.90 139.09,17.90 145.09,17.90" fill="green"/>
    </g>
    <g id="flagnote-11">
      <circle cx="339.48" cy="-278.19" r="4" fill="black"/>
      <line x1="339.48" y1="-278.19" x2="363.48" y2="-278.19" stroke="red" stroke-width="2"/>
      <polygon points="363.48,-278.19 357.48,-281.19 357.48,-275.19" fill="red"/>
      <line x1="339.48" y1="-278.19" x2="339.48" y2="-302.19" stroke="green" stroke-width="2"/>
      <polygon points="339.48,-302.19 336.48,-296.19 342.48,-296.19" fill="green"/>
    </g>
    <g id="flagnote-11-leader_dest">
      <circle cx="142.09" cy="-35.90" r="4" fill="black"/>
      <line x1="142.09" y1="-35.90" x2="166.09" y2="-35.90" stroke="red" stroke-width="2"/>
      <polygon points="166.09,-35.90 160.09,-38.90 160.09,-32.90" fill="red"/>
      <line x1="142.09" y1="-35.90" x2="142.09" y2="-59.90" stroke="green" stroke-width="2"/>
      <polygon points="142.09,-59.90 139.09,-53.90 145.09,-53.90" fill="green"/>
    </g>
    <g id="flagnote-12">
      <circle cx="264.94" cy="288.00" r="4" fill="black"/>
      <line x1="264.94" y1="288.00" x2="288.94" y2="288.00" stroke="red" stroke-width="2"/>
      <polygon points="288.94,288.00 282.94,285.00 282.94,291.00" fill="red"/>
      <line x1="264.94" y1="288.00" x2="264.94" y2="264.00" stroke="green" stroke-width="2"/>
      <polygon points="264.94,264.00 261.94,270.00 267.94,270.00" fill="green"/>
    </g>
    <g id="flagnote-12-leader_dest">
      <circle cx="132.47" cy="35.90" r="4" fill="black"/>
      <line x1="132.47" y1="35.90" x2="156.47" y2="35.90" stroke="red" stroke-width="2"/>
      <polygon points="156.47,35.90 150.47,32.90 150.47,38.90" fill="red"/>
      <line x1="132.47" y1="35.90" x2="132.47" y2="11.90" stroke="green" stroke-width="2"/>
      <polygon points="132.47,11.90 129.47,17.90 135.47,17.90" fill="green"/>
    </g>
    <g id="flagnote-13">
      <circle cx="264.94" cy="-288.00" r="4" fill="black"/>
      <line x1="264.94" y1="-288.00" x2="288.94" y2="-288.00" stroke="red" stroke-width="2"/>
      <polygon points="288.94,-288.00 282.94,-291.00 282.94,-285.00" fill="red"/>
      <line x1="264.94" y1="-288.00" x2="264.94" y2="-312.00" stroke="green" stroke-width="2"/>
      <polygon points="264.94,-312.00 261.94,-306.00 267.94,-306.00" fill="green"/>
    </g>
    <g id="flagnote-13-leader_dest">
      <circle cx="132.47" cy="-35.90" r="4" fill="black"/>
      <line x1="132.47" y1="-35.90" x2="156.47" y2="-35.90" stroke="red" stroke-width="2"/>
      <polygon points="156.47,-35.90 150.47,-38.90 150.47,-32.90" fill="red"/>
      <line x1="132.47" y1="-35.90" x2="132.47" y2="-59.90" stroke="green" stroke-width="2"/>
      <polygon points="132.47,-59.90 129.47,-53.90 135.47,-53.90" fill="green"/>
    </g>
  </g>
</svg>
